<svg xmlns="http://www.w3.org/2000/svg" viewBox="0 0 32 32"><path d="M24 2a5 5 0 0 1 4.995 4.783L29 7v15a5.001 5.001 0 0 1-3 4.584V28a2 2 0 0 1-3.995.15L22 28l-.001-1h-12L10 28a2 2 0 0 1-3.995.15L6 28v-1.416a5.002 5.002 0 0 1-2.995-4.367L3 22V7a5 5 0 0 1 4.783-4.995L8 2h16zm0 17a2 2 0 1 0 0 4 2 2 0 0 0 0-4zM8 19a2 2 0 1 0 0 4 2 2 0 0 0 0-4zm5-11H8a2 2 0 0 0-1.995 1.85L6 10v3a2 2 0 0 0 1.85 1.995L8 15h5a2 2 0 0 0 1.995-1.85L15 13v-3a2 2 0 0 0-2-2zm11 0h-5a2 2 0 0 0-1.995 1.85L17 10v3a2 2 0 0 0 1.85 1.995L19 15h5a2 2 0 0 0 1.995-1.85L26 13v-3a2 2 0 0 0-2-2z" fill="#70318B"/></svg>