<svg xmlns="http://www.w3.org/2000/svg" viewBox="0 0 32 32"><path d="M24 2a5 5 0 0 1 4.995 4.783L29 7v2.479l-3 3V10a2 2 0 0 0-2-2h-5a2 2 0 0 0-1.995 1.85L17 10v3a2 2 0 0 0 1.85 1.995L19 15h4.479l-12 12h-1.48L10 28a2 2 0 0 1-.08.56l-1.037 1.036.13.13a2 2 0 0 1-3.007-1.576L6 28v-1.416a5.002 5.002 0 0 1-2.995-4.367L3 22v-1.479L8.521 15H13a2 2 0 0 0 1.995-1.85L15 13v-3a1.99 1.99 0 0 0-.349-1.129L21.521 2H24zM8 19a2 2 0 1 0 0 4 2 2 0 0 0 0-4z" fill="#70318B"/><path d="M29 9.479V22a5.001 5.001 0 0 1-3 4.584V28a2 2 0 0 1-3.995.15L22 28l-.001-1h-10.52l12-12H24a2 2 0 0 0 1.995-1.85L26 13v-.521l3-3zM9.012 29.725l-.129-.129 1.038-1.036c-.144.494-.474.91-.909 1.165zM24 19a2 2 0 1 0 0 4 2 2 0 0 0 0-4z" fill="#F34737"/><path d="m21.521 2-6.87 6.871A1.998 1.998 0 0 0 13 8H8a2 2 0 0 0-1.995 1.85L6 10v3a2 2 0 0 0 1.85 1.995L8 15h.521L3 20.521V7a5 5 0 0 1 4.783-4.995L8 2h13.521z" fill="#4DCECE"/></svg>