<svg xmlns="http://www.w3.org/2000/svg" viewBox="0 0 32 32"><path d="M20.927 4a5 5 0 0 1 4.768 3.495l.063.217 1.456 5.458a4.99 4.99 0 0 1 1.779 3.56L29 17v2a5.001 5.001 0 0 1-2.999 4.583L26 26.214a2 2 0 0 1-3.995.15l-.005-.15V24H9.999L10 26.214a2 2 0 0 1-3.995.15L6 26.214l-.001-2.63a5.002 5.002 0 0 1-2.994-4.367L3 19v-2a4.99 4.99 0 0 1 1.786-3.83l1.456-5.458a5 5 0 0 1 4.606-3.707L11.073 4h9.854zM8 16a2 2 0 1 0 0 4 2 2 0 0 0 0-4zm16 0a2 2 0 1 0 0 4 2 2 0 0 0 0-4zM20.927 6h-9.854a3 3 0 0 0-2.846 2.05l-.053.177-1.025 3.845c.185-.032.372-.053.563-.064L8 12h16c.29 0 .574.025.85.072l-1.024-3.845A3 3 0 0 0 20.926 6z" fill="#70318B"/></svg>