<svg xmlns="http://www.w3.org/2000/svg" viewBox="0 0 32 32"><g fill="none"><path d="m25.695 7.495.063.217 1.456 5.458c.198.166.383.347.553.542l-2.638 2.637a2 2 0 0 0-2.78 2.78l-4.87 4.87-7.48.001.001 2.214a2 2 0 0 1-3.995.15L6 26.214l-.001-2.63a5.014 5.014 0 0 1-1.767-1.297l2.64-2.636a2 2 0 0 0 2.78-2.78L14.521 12H24c.29 0 .574.025.85.072l-1.024-3.845A3 3 0 0 0 20.926 6h-.405l1.8-1.802a5.001 5.001 0 0 1 3.374 3.297z" fill="#70318B"/><path d="M28.993 16.73 29 17v2a5.001 5.001 0 0 1-2.999 4.583L26 26.214a2 2 0 0 1-3.995.15l-.005-.15V24h-4.521l4.87-4.87a2 2 0 1 0 2.78-2.78l2.638-2.638a4.98 4.98 0 0 1 1.226 3.018z" fill="#F34737"/><path d="M20.927 4c.481 0 .95.069 1.396.198L20.52 6h-9.448a3 3 0 0 0-2.846 2.05l-.053.177-1.025 3.845c.185-.032.372-.053.563-.064L8 12h6.521l-4.87 4.871a2 2 0 1 0-2.78 2.78l-2.638 2.637a4.98 4.98 0 0 1-1.228-3.071L3 19v-2a4.99 4.99 0 0 1 1.786-3.83l1.456-5.458a5 5 0 0 1 4.606-3.707L11.073 4h9.854z" fill="#4DCECE"/></g></svg>