<svg xmlns="http://www.w3.org/2000/svg" viewBox="0 0 32 32"><g fill="none"><path d="m17.725 23.734.085.035-.02 1.605 2.467 1.85c.197.148.335.36.392.598l.021.122.007.12v.575a.86.86 0 0 1-.888.86l-.107-.01-.102-.023-3.955-1.138-3.355.861 5.455-5.455zm7.868-7.814 2.719 1.7c.497.31.835.817.934 1.39l.022.174.007.174v.397a1.05 1.05 0 0 1-1.126 1.047l-.12-.016-.117-.029-5.435-1.775 3.054-3.055.062-.007z" fill="#F34737"/><path d="M17.728 9.723 8.45 19l5.03-1.473-.066 7.834-2.446 1.81-.091.077c-.21.2-.329.475-.329.762v.575l.007.105a.861.861 0 0 0 1.09.723l.675-.194 5.478-5.47.016-6.27 4.684 1.533 3.105-3.068-7.813-4.956.023-1.231-.085-.035z" fill="#70318B"/><path d="M15.614.95c-1.217 0-2.2.983-2.2 2.2v7.881l-10.5 6.536-.144.098a2.05 2.05 0 0 0-.82 1.64v.398l.007.119c.061.53.509.93 1.043.93l.103-.005c.073-.007.143-.021.21-.042L8.5 19.084l9.298-9.292.016-6.642-.006-.156A2.197 2.197 0 0 0 15.614.95z" fill="#4DCECE"/></g></svg>