<svg xmlns="http://www.w3.org/2000/svg" viewBox="0 0 32 32"><path d="M27.793 4a.5.5 0 0 1 .353.854L27 6l1.146 1.146a.5.5 0 0 1-.353.854H24v4h1a1 1 0 0 1 .905.574l-3 3A1 1 0 0 0 22 15h-2a1 1 0 0 0-.993.883L19 16v2a1 1 0 0 0 .574.905l-2.669 2.669A1 1 0 0 0 16 21h-2a1 1 0 0 0-.993.883L13 22v2a1 1 0 0 0 .574.905L10.478 28H5a1 1 0 0 1-1-1v-7.479l3-3V18a1 1 0 0 0 .883.993L8 19h2a1 1 0 0 0 .993-.883L11 18v-2a1 1 0 0 0-1-1H8.521L13 10.521V12a1 1 0 0 0 .883.993L14 13h2a1 1 0 0 0 .993-.883L17 12v-2a1 1 0 0 0-1-1h-1.479l2.949-2.949 1.881.706a1 1 0 0 1 .649.936V12l2-.001V4h5.793zM10 21H8a1 1 0 0 0-.993.883L7 22v2a1 1 0 0 0 .883.993L8 25h2a1 1 0 0 0 .993-.883L11 24v-2a1 1 0 0 0-1-1zm6-6h-2a1 1 0 0 0-.993.883L13 16v2a1 1 0 0 0 .883.993L14 19h2a1 1 0 0 0 .993-.883L17 18v-2a1 1 0 0 0-1-1z" fill="#70318B"/><path d="M26 13v14a1 1 0 0 1-1 1H10.48l3.095-3.095c.095.045.2.076.308.088L14 25h2a1 1 0 0 0 .993-.883L17 24v-2a.996.996 0 0 0-.095-.425l2.67-2.67c.095.045.2.076.308.088L20 19h2a1 1 0 0 0 .993-.883L23 18v-2a.996.996 0 0 0-.095-.425l3-3c.06.128.095.273.095.425zm-4 8h-2a1 1 0 0 0-.993.883L19 22v2a1 1 0 0 0 .883.993L20 25h2a1 1 0 0 0 .993-.883L23 24v-2a1 1 0 0 0-1-1z" fill="#F34737"/><path d="M12.351 4.132 17.47 6.05l-2.948 2.948L14 9a1 1 0 0 0-.993.883L13 10v.521l-4.478 4.478L8 15a1 1 0 0 0-.993.883L7 16v.521l-3 3V7.693a1 1 0 0 1 .649-.936l7-2.625a1 1 0 0 1 .702 0zM10 9H8a1 1 0 0 0-.993.883L7 10v2a1 1 0 0 0 .883.993L8 13h2a1 1 0 0 0 .993-.883L11 12v-2a1 1 0 0 0-1-1z" fill="#4DCECE"/></svg>