<svg xmlns="http://www.w3.org/2000/svg" viewBox="0 0 32 32"><path d="M14.203 1.892a2 2 0 0 1 3.33 0l1.718 2.583 2.843-1.244a2 2 0 0 1 2.795 1.655l.007.146.049 3.102 3.064.49a2 2 0 0 1 1.459 2.899l-.075.131-1.636 2.636 2.312 2.07a2 2 0 0 1-.335 3.223l-.139.073-2.802 1.333.827 2.991a2 2 0 0 1-2.035 2.53l-.145-.013-3.079-.393-.92 2.963a2 2 0 0 1-3.077 1.032l-.119-.093-2.377-1.995-2.377 1.995a2 2 0 0 1-3.145-.796l-.05-.143-.922-2.963-3.078.393a2 2 0 0 1-2.214-2.375l.034-.142.826-2.991-2.801-1.333a2 2 0 0 1-.587-3.187l.113-.11 2.311-2.069-1.635-2.636a2 2 0 0 1 1.235-3l.149-.03 3.063-.49.05-3.102a2 2 0 0 1 2.666-1.854l.135.053 2.843 1.244zM18.868 18a2 2 0 1 0 0 4 2 2 0 0 0 0-4zm.707-5.707a1 1 0 0 0-1.414 0l-6 6-.083.094a1 1 0 0 0 1.497 1.32l6-6 .083-.094a1 1 0 0 0-.083-1.32zM12.868 10a2 2 0 1 0 0 4 2 2 0 0 0 0-4z" fill="#70318B"/></svg>