<svg xmlns="http://www.w3.org/2000/svg" viewBox="0 0 32 32"><path d="m17.57 1.76.095.132 1.718 2.583 1.177-.515-6.406 6.406a2 2 0 0 0-2.788 2.788l-7.338 7.338-1.755-.836a2 2 0 0 1-.69-3.073l.103-.114.113-.11L4.11 14.29l-1.635-2.636a2 2 0 0 1 1.092-2.96l.143-.04.149-.03 3.063-.49.05-3.102A2 2 0 0 1 9.5 3.134l.137.044.136.053 2.842 1.244 1.719-2.583a2 2 0 0 1 3.235-.132z" fill="#4DCECE"/><path d="m25.003 4.744.018.142.007.146.049 3.102 3.064.49a1.986 1.986 0 0 1 1.524 1.192l-9.032 9.03a2 2 0 1 0-2.787 2.788l-7.423 7.42-.917-2.95-3.078.393a2 2 0 0 1-2.238-2.233l.024-.142.034-.142.826-2.991-1.045-.497 7.338-7.337a2 2 0 1 0 2.788-2.787l6.408-6.41 1.663-.727a2 2 0 0 1 2.777 1.513zm-6.616 7.466-.094.083-6 6-.083.094a1 1 0 0 0 1.403 1.403l.094-.083 6-6 .083-.094a1 1 0 0 0-1.403-1.403z" fill="#70318B"/><path d="m29.664 11.389-.064.134-.075.131-1.636 2.636 2.312 2.07a2 2 0 0 1-.204 3.142l-.13.081-.14.073-2.802 1.333.827 2.991a2 2 0 0 1-1.891 2.534l-.144-.003-.145-.014-3.079-.393-.92 2.963a2 2 0 0 1-2.953 1.114l-.124-.082-.119-.093L16 28.01l-2.377 1.995a2 2 0 0 1-3.086-.66l-.06-.136-.05-.143-.004-.011 7.424-7.422a2 2 0 0 0 2.787-2.788l9.031-9.03c.207.484.225 1.05-.001 1.573z" fill="#F34737"/></svg>